PathFileType	4	(X/Y/Z)	/Users/itak/Documents/Research/Walk-IL/dataset/trc/00298_00010.trc
DataRate	CameraRate	NumFrames	NumMarkers	Units	OrigDataRate	OrigDataStartFrame	OrigNumFrames
100.000000	100.000000	4	55	mm	100.000000	0	297
Frame#	Time	RPSI			LPSI			L3			STRN			T10			C7			CLAV			RBAK			LBAK			LSHO			LUPA			LAEL			LAOL			LWPS			LFRA			LIFD			LHPS			LHTS			RSHO			RUPA			RAEL			RAOL			RWTS			RWPS			RFRA			RIFD			RHTS			RHPS			RBHD			LFHD			RFHD			LBHD			RASI			LASI			LKNE			LTHI			LANK			LTIP			LTOE			LMT1			LMT5			LHEE			RKNE			RTHI			RANK			RTIP			RTOE			RMT1			RMT5			LWTS			RHEE			LHIP			RHIP			*53			*54			
		X1	Y1	Z1	X2	Y2	Z2	X3	Y3	Z3	X4	Y4	Z4	X5	Y5	Z5	X6	Y6	Z6	X7	Y7	Z7	X8	Y8	Z8	X9	Y9	Z9	X10	Y10	Z10	X11	Y11	Z11	X12	Y12	Z12	X13	Y13	Z13	X14	Y14	Z14	X15	Y15	Z15	X16	Y16	Z16	X17	Y17	Z17	X18	Y18	Z18	X19	Y19	Z19	X20	Y20	Z20	X21	Y21	Z21	X22	Y22	Z22	X23	Y23	Z23	X24	Y24	Z24	X25	Y25	Z25	X26	Y26	Z26	X27	Y27	Z27	X28	Y28	Z28	X29	Y29	Z29	X30	Y30	Z30	X31	Y31	Z31	X32	Y32	Z32	X33	Y33	Z33	X34	Y34	Z34	X35	Y35	Z35	X36	Y36	Z36	X37	Y37	Z37	X38	Y38	Z38	X39	Y39	Z39	X40	Y40	Z40	X41	Y41	Z41	X42	Y42	Z42	X43	Y43	Z43	X44	Y44	Z44	X45	Y45	Z45	X46	Y46	Z46	X47	Y47	Z47	X48	Y48	Z48	X49	Y49	Z49	X50	Y50	Z50	X51	Y51	Z51	X52	Y52	Z52	X53	Y53	Z53	X54	Y54	Z54	X55	Y55	Z55	

1	0	-1241.110229492188	994.7447509765625	700.023193359375	-1220.119995117188	979.7227172851562	526.1803588867188	-1205.831420898438	1063.036499023438	621.8297119140625	-935.1768798828125	1209.47998046875	630.7950439453125	-1205.14013671875	1182.876586914062	627.0408935546875	-1124.933837890625	1418.777099609375	613.4096069335938	-984.1802978515625	1316.503540039062	623.7853393554688	-1198.943359375	1292.546752929688	689.6712646484375	-1144.13134765625	1385.015747070312	508.4790344238281	-1052.807861328125	1378.440063476562	456.4277648925781	-1106.920654296875	1271.410278320312	384.4277648925781	-1152.792358398438	1073.164672851562	370.1113586425781	-1211.044311523438	1073.653686523438	433.9037780761719	-1154.474609375	835.68310546875	355.73095703125	-1160.317749023438	968.5911865234375	361.3756408691406	-1145.546875	659.3487548828125	415.2717590332031	-1166.234008789062	747.9117431640625	358.9225463867188	-1110.611572265625	740.7741088867188	395.3686828613281	-1064.456787109375	1386.760375976562	773.9596557617188	-1075.681274414062	1327.807861328125	841.4559936523438	-1074.794921875	1057.58935546875	889.76171875	-1160.208740234375	1062.412719726562	798.0287475585938	-969.661376953125	848.1852416992188	795.6448364257812	-995.8743896484375	830.8138427734375	874.9335327148438	-1042.442504882812	990.1085815429688	889.9951782226562	-946.9307250976562	662.9932861328125	773.8848266601562	-927.5589599609375	734.5726928710938	793.2454223632812	-965.4884033203125	723.3406982421875	851.8112182617188	-1073.829223632812	1576.642211914062	676.5636596679688	-900.1213989257812	1582.772827148438	555.0287475585938	-900.7023315429688	1586.38525390625	647.5609130859375	-1074.392700195312	1561.537109375	531.3014526367188	-1030.830444335938	933.4142456054688	764.82958984375	-1009.286315917969	938.9714965820312	514.3461303710938	-901.4204711914062	511.4756164550781	502.0456848144531	-967.9174194335938	637.447509765625	466.7188720703125	-924.9413452148438	56.75752258300781	527.2679443359375	-910.9654541015625	277.41650390625	502.9190673828125	-734.636962890625	83.20006561279297	616.5912475585938	-806.3966064453125	61.3123779296875	645.8294067382812	-802.5037231445312	65.63101196289062	534.5478515625	-977.466552734375	46.76119232177734	577.9682006835938	-1191.141479492188	466.4097595214844	757.9127807617188	-1124.682250976562	718.9600219726562	806.7919921875	-1348.705688476562	47.0125732421875	690.1948852539062	-1208.457885742188	343.0254516601562	734.6964111328125	-1149.477905273438	47.57292556762695	658.354736328125	-1202.22998046875	46.36012268066406	613.2772216796875	-1247.660766601562	38.69577789306641	722.5103149414062	-1115.900146484375	840.8601684570312	416.3965454101562	-1396.850830078125	46.03351211547852	636.395263671875	-1137.067993164062	933.1483154296875	443.9995422363281	-1159.7392578125	937.26416015625	817.3095092773438	nan	nan	nan	nan	nan	nan	
2	0.01	-1237.518432617188	994.3049926757812	700.0306396484375	-1216.404418945312	979.096923828125	526.1458740234375	-1202.194091796875	1062.294311523438	621.8468017578125	-931.7379150390625	1208.685424804688	630.8286743164062	-1201.647216796875	1181.964721679688	627.1484985351562	-1121.572387695312	1417.880004882812	613.435791015625	-980.767578125	1315.69580078125	623.751953125	-1195.502563476562	1291.545654296875	689.7293701171875	-1140.892211914062	1384.023071289062	508.5784912109375	-1049.509155273438	1377.491088867188	456.4086608886719	-1103.891967773438	1270.537841796875	384.5122375488281	-1150.100463867188	1072.364013671875	370.3723754882812	-1208.19677734375	1073.094970703125	434.3474731445312	-1153.231323242188	834.8526000976562	355.81787109375	-1158.380737304688	967.8184814453125	361.5809020996094	-1145.834838867188	658.4506225585938	415.312744140625	-1165.766845703125	747.1911010742188	359.1132507324219	-1110.33447265625	739.5175170898438	395.5206909179688	-1060.97900390625	1385.98291015625	773.937744140625	-1072.236938476562	1327.023559570312	841.4188842773438	-1071.50439453125	1056.823364257812	889.93212890625	-1154.490844726562	1060.306762695312	799.0303955078125	-965.9053955078125	847.8580322265625	795.5518798828125	-992.0219116210938	830.2399291992188	874.7744140625	-1039.045166015625	989.3944702148438	890.1334228515625	-942.369140625	662.851806640625	773.3809204101562	-923.3221435546875	734.3860473632812	792.99658203125	-961.3375854492188	722.942626953125	851.5255126953125	-1070.364624023438	1575.829345703125	676.545654296875	-896.8096313476562	1581.932373046875	554.7216186523438	-897.2800903320312	1585.566040039062	647.2871704101562	-1071.2265625	1560.673950195312	531.3113403320312	-1027.331787109375	932.55810546875	764.9304809570312	-1005.629089355469	937.9201049804688	514.4396362304688	-898.7150268554688	510.2752075195312	502.4746398925781	-965.1826782226562	636.1738891601562	466.8117980957031	-911.8954467773438	55.87030029296875	528.7653198242188	-903.502685546875	276.5126647949219	503.8859252929688	-722.1621704101562	86.18658447265625	617.8763427734375	-793.510498046875	63.06185531616211	647.2498779296875	-789.7575073242188	67.07272338867188	535.935546875	-964.3862915039062	45.30326843261719	579.7899169921875	-1189.888061523438	466.0638427734375	757.9249267578125	-1122.2001953125	718.259765625	806.8345947265625	-1348.6982421875	47.06605529785156	690.175537109375	-1207.575927734375	342.7261352539062	734.6580810546875	-1149.555908203125	47.58563613891602	658.3822631835938	-1202.257446289062	46.34466552734375	613.2969360351562	-1247.672973632812	38.70261001586914	722.585693359375	-1114.641479492188	839.7477416992188	416.5882873535156	-1396.887817382812	46.1816291809082	636.3906860351562	-1133.752685546875	932.087646484375	444.0628051757812	-1156.29638671875	936.7730712890625	817.2518920898438	nan	nan	nan	nan	nan	nan	
3	0.02	-1232.937866210938	993.7114868164062	699.9837036132812	-1211.6533203125	978.2509155273438	526.07421875	-1197.553100585938	1061.324096679688	621.849609375	-927.3507690429688	1207.648071289062	630.84716796875	-1197.177856445312	1180.754760742188	627.2542724609375	-1117.281860351562	1416.708618164062	613.426513671875	-976.4061279296875	1314.635864257812	623.688720703125	-1191.114990234375	1290.2607421875	689.7529296875	-1136.73681640625	1382.724243164062	508.6505432128906	-1045.30029296875	1376.247802734375	456.3494873046875	-1099.989013671875	1269.38134765625	384.5935974121094	-1146.6416015625	1071.31396484375	370.6871337890625	-1204.543334960938	1072.330200195312	434.9029846191406	-1151.600952148438	833.7583618164062	355.9398193359375	-1155.834716796875	966.798583984375	361.8202209472656	-1146.088134765625	657.2911376953125	415.3898315429688	-1165.083129882812	746.250244140625	359.3449401855469	-1109.862182617188	737.9236450195312	395.6859741210938	-1056.583251953125	1384.954223632812	773.8822021484375	-1067.855346679688	1326.008544921875	841.345703125	-1067.32763671875	1055.839599609375	890.12744140625	-1147.338500976562	1057.737426757812	800.211181640625	-961.1202392578125	847.3961791992188	795.4590454101562	-987.1425170898438	829.4904174804688	874.6058349609375	-1034.726318359375	988.4638671875	890.2872924804688	-936.6597290039062	662.5941772460938	772.7906494140625	-917.9793701171875	734.1112060546875	792.7118530273438	-956.0851440429688	722.3911743164062	851.1865844726562	-1065.977905273438	1574.773315429688	676.49609375	-892.6361083984375	1580.857666015625	554.2877807617188	-892.9409790039062	1584.520629882812	646.8887329101562	-1067.212768554688	1559.551391601562	531.28759765625	-1022.87890625	931.4408569335938	765.064697265625	-1000.959106445312	936.5449829101562	514.565185546875	-895.243896484375	508.7400817871094	503.0071411132812	-961.7034301757812	634.5103759765625	466.9564208984375	-895.8300170898438	54.87780380249023	530.5714111328125	-894.30517578125	275.461669921875	505.0614013671875	-706.8598022460938	90.03060150146484	619.2724609375	-777.6130981445312	65.38626861572266	648.846923828125	-774.1178588867188	68.97219848632812	537.5062866210938	-948.2081298828125	43.59317398071289	581.9739379882812	-1188.237426757812	465.601318359375	757.9596557617188	-1119.056640625	717.3568115234375	806.8782348632812	-1348.685180664062	47.14742660522461	690.16552734375	-1206.418579101562	342.3358764648438	734.6429443359375	-1149.659912109375	47.60911178588867	658.4174194335938	-1202.303344726562	46.3282470703125	613.3257446289062	-1247.6943359375	38.69698333740234	722.6700439453125	-1113.053466796875	838.2887573242188	416.7905578613281	-1396.94189453125	46.38230895996094	636.4003295898438	-1129.47021484375	930.6857299804688	444.1681823730469	-1151.9453125	936.1072387695312	817.1812744140625	nan	nan	nan	nan	nan	nan	
4	0.03	-1227.520874023438	992.9650268554688	699.8616333007812	-1206.016479492188	977.1878662109375	525.9575805664062	-1192.060302734375	1060.1435546875	621.8255004882812	-922.1564331054688	1206.39013671875	630.8397827148438	-1191.873046875	1179.267944335938	627.3348999023438	-1112.203369140625	1415.2900390625	613.3590698242188	-971.2369995117188	1313.346313476562	623.58740234375	-1185.924682617188	1288.7333984375	689.7181396484375	-1131.789428710938	1381.1474609375	508.6658935546875	-1040.315795898438	1374.73486328125	456.234375	-1095.321411132812	1267.955688476562	384.6551208496094	-1142.516235351562	1070.03076171875	371.0332641601562	-1200.18798828125	1071.355712890625	435.5490112304688	-1149.615966796875	832.4215087890625	356.0932312011719	-1152.725341796875	965.5460205078125	362.0738220214844	-1146.231567382812	655.9022827148438	415.5047302246094	-1164.160400390625	745.107421875	359.6021118164062	-1109.148315429688	736.0467529296875	395.8455505371094	-1051.431274414062	1383.694458007812	773.7796020507812	-1062.691772460938	1324.788330078125	841.2275390625	-1062.409057617188	1054.665893554688	890.328857421875	-1139.061157226562	1054.849853515625	801.482421875	-955.4703369140625	846.793701171875	795.382568359375	-981.4209594726562	828.5802001953125	874.4494018554688	-1029.635131835938	987.3407592773438	890.4423828125	-930.0445556640625	662.1927490234375	772.166748046875	-911.734619140625	733.734375	792.4187622070312	-949.9290161132812	721.6844482421875	850.824462890625	-1060.826049804688	1573.501586914062	676.4039916992188	-887.7621459960938	1579.583984375	553.7190551757812	-887.8411254882812	1583.283935546875	646.3532104492188	-1062.496704101562	1558.197143554688	531.2106323242188	-1017.629028320312	930.08642578125	765.2327880859375	-995.42626953125	934.872314453125	514.7236938476562	-891.106689453125	506.9206848144531	503.6192932128906	-957.5792846679688	632.4995727539062	467.1604614257812	-877.615966796875	53.87681579589844	532.5867919921875	-883.8413696289062	274.3354797363281	506.3782653808594	-689.5558471679688	94.58127593994141	620.58349609375	-759.51806640625	68.22364044189453	650.4503173828125	-756.4458618164062	71.27359008789062	539.0946044921875	-929.7556762695312	41.7608528137207	584.4111938476562	-1186.222900390625	465.0279235839844	758.0192260742188	-1115.35400390625	716.281005859375	806.9163818359375	-1348.66552734375	47.26188659667969	690.1738891601562	-1205.012817382812	341.8603820800781	734.6583862304688	-1149.785400390625	47.64306259155273	658.4591674804688	-1202.370849609375	46.31432723999023	613.3637084960938	-1247.7236328125	38.67788314819336	722.760009765625	-1111.15625	836.519775390625	416.979248046875	-1397.01171875	46.64241027832031	636.43115234375	-1124.343017578125	928.961669921875	444.3189086914062	-1146.848999023438	935.2709350585938	817.0989379882812	nan	nan	nan	nan	nan	nan	
